<?xml version="1.0" encoding="UTF-8" standalone="no"?>
<!-- Created with Inkscape (http://www.inkscape.org/) -->

<svg
   width="1186.6333"
   height="691.20813"
   viewBox="0 0 313.96339 182.88215"
   version="1.1"
   id="svg1"
   xml:space="preserve"
   xmlns="http://www.w3.org/2000/svg"
   xmlns:svg="http://www.w3.org/2000/svg"><defs
     id="defs1" /><g
     id="layer1"
     transform="translate(-10.968502,-8.3363427)"><rect
       style="fill:#efcb77;fill-opacity:1;stroke:#8a8881;stroke-width:0.746057;stroke-dasharray:none;stroke-opacity:0"
       id="rect1"
       width="263.76105"
       height="114.02369"
       x="38.398422"
       y="40.02013" /><text
       xml:space="preserve"
       style="font-weight:bold;font-size:30.6486px;font-family:Arial;-inkscape-font-specification:'Arial, Bold';fill:#000000;fill-opacity:1;stroke:#8a8881;stroke-width:0.61155"
       x="93.900978"
       y="30.765377"
       id="text1"
       transform="scale(0.97804244,1.0224505)"><tspan
         id="tspan1"
         style="fill:#000000;fill-opacity:1;stroke:#8a8881;stroke-width:0.611551;stroke-opacity:0"
         x="93.900978"
         y="30.765377">YOU LOST</tspan></text><text
       xml:space="preserve"
       style="font-weight:bold;font-size:14.1111px;font-family:Arial;-inkscape-font-specification:'Arial, Bold';fill:#000000;fill-opacity:1;stroke:#8a8881;stroke-width:0.61155"
       x="11.548061"
       y="166.1122"
       id="text2"
       transform="scale(0.97804245,1.0224505)"><tspan
         style="font-size:14.1111px;fill:#000000;fill-opacity:1;stroke:#8a8881;stroke-width:0.611551;stroke-opacity:0"
         x="11.548061"
         y="166.1122"
         id="tspan4">You did a horrible job, your boss is not going to </tspan><tspan
         style="font-size:14.1111px;fill:#000000;fill-opacity:1;stroke:#8a8881;stroke-width:0.611551;stroke-opacity:0"
         x="11.548061"
         y="183.75107"
         id="tspan35">tolerate you anymore, so he fires you.</tspan><tspan
         style="font-size:14.1111px;fill:#000000;fill-opacity:1;stroke:#8a8881;stroke-width:0.611551;stroke-opacity:0"
         x="11.548061"
         y="201.38995"
         id="tspan3" /></text><g
       id="layer1-2"
       transform="translate(-31.352947,183.52287)"><rect
         style="fill:#e0a619;fill-opacity:1;stroke:#ffcc00;stroke-width:0.554581;stroke-opacity:0"
         id="rect1-4-5"
         width="263.41208"
         height="53.131096"
         x="69.837906"
         y="-82.782692"
         rx="0"
         ry="0" /><rect
         style="fill:#008080;stroke:#ffcc00;stroke-width:0.709999;stroke-opacity:0"
         id="rect25"
         width="4.7779922"
         height="5.7335906"
         x="151.36679"
         y="-58.100388"
         rx="5.6338401" /><rect
         style="fill:#008080;stroke:#ffcc00;stroke-width:0.745393;stroke-opacity:0"
         id="rect11"
         width="42.966534"
         height="69.149933"
         x="144.73259"
         y="-125.47367"
         rx="3.4373229" /><rect
         style="fill:#008080;stroke:#ffcc00;stroke-width:0.985362;stroke-opacity:0"
         id="rect12"
         width="12.159277"
         height="2.360698"
         x="172.09102"
         y="-93.0783"
         rx="6.0796385"
         ry="0"
         transform="matrix(0.99997142,-0.00756099,-0.16638298,0.98606121,0,0)" /><path
         style="fill:#008080;fill-opacity:1;fill-rule:evenodd;stroke-width:0.095373"
         id="path12"
         d="m 198.34387,-91.995014 a 1.4811779,1.4811779 0 0 1 1.49627,-1.462626 1.4811779,1.4811779 0 0 1 1.46593,1.493034 1.4811779,1.4811779 0 0 1 -1.4898,1.469219 1.4811779,1.4811779 0 0 1 -1.4725,-1.486546 l 1.48117,0.0054 z" /><rect
         style="fill:#008080;stroke:#ffcc00;stroke-width:0.709999;stroke-opacity:0"
         id="rect28"
         width="4.7779922"
         height="5.7335906"
         x="174.30115"
         y="-58.100388"
         rx="5.6338401" /><rect
         style="fill:#008080;stroke:#ffcc00;stroke-width:1.41105;stroke-opacity:0"
         id="rect29"
         width="17.247122"
         height="3.4129241"
         x="-170.75764"
         y="22.053211"
         rx="8.6015425"
         ry="0"
         transform="matrix(-0.754695,0.6560758,0.66950805,0.7428048,0,0)" /><rect
         style="fill:#008080;stroke:#ffcc00;stroke-width:1.41105;stroke-opacity:0"
         id="rect30"
         width="17.247122"
         height="3.4129241"
         x="-74.622658"
         y="-149.28944"
         rx="8.4682713"
         ry="0"
         transform="matrix(-0.79899832,-0.60133326,-0.58690397,0.80965655,0,0)" /><g
         id="layer1-5"
         transform="matrix(0.38215949,0,0,0.37286022,201.26365,-103.60126)"><path
           style="fill:#000080;fill-rule:evenodd;stroke-width:0.394201"
           id="path1"
           d="m 187.18748,-197.91441 a 78.741417,88.950874 0 0 1 -78.54981,88.95061 78.741417,88.950874 0 0 1 -78.932087,-88.51773"
           transform="scale(1,-1)" /><path
           style="fill:#000000;fill-rule:evenodd;stroke-width:0.264583"
           id="path2"
           d="M 93.648651,111.6139 A 11.276062,14.142858 0 0 1 82.435049,125.75654 11.276062,14.142858 0 0 1 71.097219,111.77057 11.276062,14.142858 0 0 1 82.185218,97.472994 11.276062,14.142858 0 0 1 93.645883,111.30057" /><path
           style="fill:#000000;fill-rule:evenodd;stroke-width:0.264583"
           id="path2-4"
           d="m 143.23882,110.83229 a 11.276062,14.142858 0 0 1 -11.21361,14.14264 11.276062,14.142858 0 0 1 -11.33783,-13.98596 11.276062,14.142858 0 0 1 11.088,-14.297584 11.276062,14.142858 0 0 1 11.46067,13.827574" /><path
           style="fill:#000000;fill-rule:evenodd;stroke-width:0.275775"
           id="path3"
           d="m 93.98364,-136.30081 a 4.3586335,5.9744806 0 0 1 2.274657,-5.17307 4.3586335,5.9744806 0 0 1 4.404273,0.19032 4.3586335,5.9744806 0 0 1 2.03243,5.35919 l -4.353066,-0.30192 z"
           transform="scale(1,-1)" /><path
           style="fill:#000000;fill-rule:evenodd;stroke-width:0.275775"
           id="path4"
           d="m 102.48128,-135.73348 a 4.3586335,7.3365569 0 0 1 4.75543,-6.15569 4.3586335,7.3365569 0 0 1 3.90317,7.66813 l -4.35307,-0.37076 z"
           transform="scale(1,-1)" /><path
           style="fill:#000000;fill-rule:evenodd;stroke-width:0.275775"
           id="path5"
           d="m 110.65373,-136.00589 a 4.3586335,7.3365569 0 0 1 4.75543,-6.15569 4.3586335,7.3365569 0 0 1 3.90317,7.66812 l -4.35306,-0.37075 z"
           transform="scale(1,-1)" /><rect
           style="fill:#000000;stroke:#ffcc00;stroke-width:0.132605;stroke-opacity:0"
           id="rect5-5"
           width="13.645925"
           height="1.775052"
           x="100.37743"
           y="155.84117"
           rx="0"
           ry="0" /><rect
           style="display:none;fill:#000000;stroke:#ffcc00;stroke-width:0.263205;stroke-opacity:0"
           id="rect6"
           width="16.51189"
           height="3.5513611"
           x="100.08898"
           y="155.33392"
           rx="0"
           ry="0" /><path
           style="fill:#00ffff;fill-rule:evenodd;stroke-width:0.700918"
           id="path33"
           d="m 78.408349,125.78879 a 4.420341,3.0807986 0 0 1 4.419081,-3.04237 4.420341,3.0807986 0 0 1 4.42089,3.04109 4.420341,3.0807986 0 0 1 -4.306966,3.1195 4.420341,3.0807986 0 0 1 -4.530116,-2.96199 l 4.417108,-0.1178 z" /><path
           style="fill:#00ffff;fill-rule:evenodd;stroke-width:0.700918"
           id="path34"
           d="m 128.66885,122.96962 a 4.420341,3.0807986 0 0 1 4.41909,-3.04238 4.420341,3.0807986 0 0 1 4.42089,3.0411 4.420341,3.0807986 0 0 1 -4.30697,3.11949 4.420341,3.0807986 0 0 1 -4.53012,-2.96198 l 4.41711,-0.11781 z" /><rect
           style="fill:#000000;stroke:#ffcc00;stroke-width:0.132617;stroke-opacity:0"
           id="rect34"
           width="13.707933"
           height="1.7673395"
           x="26.035757"
           y="115.80357"
           rx="0"
           ry="0"
           transform="matrix(0.90124216,-0.43331578,0.41616678,0.9092883,0,0)" /><rect
           style="fill:#000000;stroke:#ffcc00;stroke-width:0.144823;stroke-opacity:0"
           id="rect35"
           width="15.821749"
           height="1.8260471"
           x="-173.01213"
           y="29.942905"
           rx="0"
           ry="0"
           transform="matrix(-0.92717139,-0.37463745,-0.47827365,0.87821086,0,0)" /></g></g><rect
       style="fill:#008080;fill-opacity:1;stroke:#8a8881;stroke-width:0.709877;stroke-dasharray:none;stroke-opacity:0"
       id="rect13"
       width="2.484556"
       height="0.95559847"
       x="168.51979"
       y="91.020752" /><rect
       style="fill:#ffffff;fill-opacity:1;stroke:#8a8881;stroke-width:0.709877;stroke-dasharray:none;stroke-opacity:0"
       id="rect14"
       width="9.7471046"
       height="1.1467181"
       x="119.4498"
       y="78.550194" /><rect
       style="fill:#ffffff;fill-opacity:1;stroke:#8a8881;stroke-width:0.709877;stroke-dasharray:none;stroke-opacity:0"
       id="rect18"
       width="9.7471046"
       height="1.1467181"
       x="139.70848"
       y="78.167953" /><rect
       style="fill:#ffffff;fill-opacity:1;stroke:#8a8881;stroke-width:0.709877;stroke-dasharray:none;stroke-opacity:0"
       id="rect26"
       width="9.7471046"
       height="1.1467181"
       x="135.73671"
       y="42.340416"
       transform="rotate(12.375603)" /><rect
       style="fill:#ffffff;fill-opacity:1;stroke:#8a8881;stroke-width:0.709877;stroke-dasharray:none;stroke-opacity:0"
       id="rect27"
       width="9.7471046"
       height="1.1467181"
       x="123.60202"
       y="92.784981"
       transform="rotate(-8.8689601)" /><rect
       style="fill:#ffffff;fill-opacity:1;stroke:#8a8881;stroke-width:0.709877;stroke-dasharray:none;stroke-opacity:0"
       id="rect31"
       width="9.7471046"
       height="1.1467181"
       x="129.99088"
       y="83.685593" /></g></svg>
