<?xml version="1.0" encoding="UTF-8" standalone="no"?>
<!-- Created with Inkscape (http://www.inkscape.org/) -->

<svg
   width="1280"
   height="720"
   viewBox="0 0 338.66666 190.5"
   version="1.1"
   id="svg1"
   inkscape:export-filename="Office.jpg"
   inkscape:export-xdpi="96"
   inkscape:export-ydpi="96"
   sodipodi:docname="Office.svg"
   xml:space="preserve"
   inkscape:version="1.3.2 (091e20e, 2023-11-25, custom)"
   xmlns:inkscape="http://www.inkscape.org/namespaces/inkscape"
   xmlns:sodipodi="http://sodipodi.sourceforge.net/DTD/sodipodi-0.dtd"
   xmlns="http://www.w3.org/2000/svg"
   xmlns:svg="http://www.w3.org/2000/svg"><sodipodi:namedview
     id="namedview1"
     pagecolor="#afddff"
     bordercolor="#000000"
     borderopacity="0.25"
     inkscape:showpageshadow="2"
     inkscape:pageopacity="0.0"
     inkscape:pagecheckerboard="0"
     inkscape:deskcolor="#d1d1d1"
     inkscape:document-units="px"
     inkscape:zoom="0.48945419"
     inkscape:cx="466.84655"
     inkscape:cy="489.32056"
     inkscape:window-width="1920"
     inkscape:window-height="991"
     inkscape:window-x="1591"
     inkscape:window-y="121"
     inkscape:window-maximized="1"
     inkscape:current-layer="layer1"
     inkscape:export-bgcolor="#efcb78ff" /><defs
     id="defs1"><inkscape:perspective
       sodipodi:type="inkscape:persp3d"
       inkscape:vp_x="0 : 95.25 : 1"
       inkscape:vp_y="0 : 1000 : 0"
       inkscape:vp_z="338.66666 : 95.25 : 1"
       inkscape:persp3d-origin="169.33333 : 63.5 : 1"
       id="perspective10" /></defs><g
     inkscape:label="Capa 1"
     inkscape:groupmode="layer"
     id="layer1"><rect
       style="fill:#e0a619;fill-opacity:1;stroke:#ffcc00;stroke-width:0.735929;stroke-opacity:0"
       id="rect1"
       width="337.82913"
       height="72.950768"
       x="0.55353314"
       y="118.39739"
       rx="0"
       ry="0" /><rect
       style="fill:#008080;stroke:#ffcc00;stroke-width:0.745393;stroke-opacity:0"
       id="rect15"
       width="42.966534"
       height="69.149933"
       x="19.320786"
       y="45.886417"
       rx="3.4373229" /><rect
       style="fill:#272323;fill-opacity:1;stroke:#ffcc00;stroke-width:0.990041;stroke-opacity:0"
       id="rect2"
       width="135.40256"
       height="66.209839"
       x="97.442284"
       y="41.223198" /><rect
       style="fill:#000000;fill-opacity:1;stroke:#ffcc00;stroke-width:0.70119;stroke-opacity:0"
       id="rect3"
       width="97.851616"
       height="45.957081"
       x="115.67719"
       y="52.971275" /><rect
       style="fill:#803300;fill-opacity:1;stroke:#ffcc00;stroke-width:0.422614;stroke-opacity:0"
       id="rect4"
       width="231.10999"
       height="20.503796"
       x="53.372551"
       y="112.83503"
       ry="0"
       rx="0" /><rect
       style="fill:#6c2c00;fill-opacity:1;stroke:#ffcc00;stroke-width:0.200518;stroke-opacity:0"
       id="rect6"
       width="15.071073"
       height="70.783325"
       x="40.626995"
       y="110.1954"
       ry="0" /><path
       style="fill:#000080;fill-opacity:1;fill-rule:evenodd;stroke-width:0.41468"
       id="path6"
       sodipodi:type="arc"
       sodipodi:cx="173.44557"
       sodipodi:cy="133.71188"
       sodipodi:rx="34.659958"
       sodipodi:ry="44.267075"
       sodipodi:start="3.1540657"
       sodipodi:end="0.011254847"
       sodipodi:arc-type="slice"
       d="m 138.78831,133.15975 a 34.659958,44.267075 0 0 1 35.06846,-43.711826 34.659958,44.267075 0 0 1 34.24656,44.762166 l -34.65776,-0.49821 z" /><rect
       style="fill:#6c2c00;fill-opacity:1;stroke:#ffcc00;stroke-width:0.200518;stroke-opacity:0"
       id="rect5"
       width="15.071073"
       height="70.783325"
       x="284.11349"
       y="107.90195"
       ry="0" /><rect
       style="fill:#1a1a1a;stroke:#ffcc00;stroke-width:0.89734;stroke-opacity:0"
       id="rect7"
       width="75.496056"
       height="51.414974"
       x="136.55313"
       y="118.97012"
       rx="22.114994" /><rect
       style="fill:#333333;stroke:#ffcc00;stroke-width:0.709999;stroke-opacity:0"
       id="rect8"
       width="6.8803086"
       height="19.876448"
       x="170.7795"
       y="160.25034"
       rx="3.4401543"
       ry="0" /><rect
       style="fill:#4d4d4d;stroke:#ffcc00;stroke-width:0.709999;stroke-opacity:0"
       id="rect9"
       width="61.922779"
       height="11.084942"
       x="144.86873"
       y="178.88803"
       rx="3.4401543" /><rect
       style="fill:#1a1a1a;stroke:#ffcc00;stroke-width:0.89734;stroke-opacity:0"
       id="rect10"
       width="75.496056"
       height="51.414974"
       x="136.55313"
       y="118.97012"
       rx="22.114994" /><rect
       style="fill:#ececec;stroke:#ffcc00;stroke-width:0.709999;stroke-opacity:0"
       id="rect16"
       width="12.42278"
       height="1.7200772"
       x="23.316603"
       y="64.502892"
       rx="3.4373229"
       ry="0" /><rect
       style="fill:#ececec;stroke:#ffcc00;stroke-width:0.709999;stroke-opacity:0"
       id="rect17"
       width="12.42278"
       height="1.7200772"
       x="43.575291"
       y="64.407326"
       rx="0"
       ry="0" /><path
       style="fill:#f2f2f2;fill-rule:evenodd;stroke-width:0.264583"
       id="path17"
       sodipodi:type="arc"
       sodipodi:cx="29.145752"
       sodipodi:cy="67.608589"
       sodipodi:rx="2.484556"
       sodipodi:ry="2.4367762"
       sodipodi:start="3.1540657"
       sodipodi:end="3.1452337"
       sodipodi:arc-type="slice"
       d="m 26.661389,67.578196 a 2.484556,2.4367762 0 0 1 2.509867,-2.406255 2.484556,2.4367762 0 0 1 2.458971,2.456281 2.484556,2.4367762 0 0 1 -2.499007,2.417102 2.484556,2.4367762 0 0 1 -2.470008,-2.445607 l 2.48454,0.0089 z" /><path
       style="fill:#f2f2f2;fill-rule:evenodd;stroke-width:0.264583"
       id="path18"
       sodipodi:type="arc"
       sodipodi:cx="46.442085"
       sodipodi:cy="67.513031"
       sodipodi:rx="2.484556"
       sodipodi:ry="2.4367762"
       sodipodi:start="3.1540657"
       sodipodi:end="3.1452337"
       sodipodi:arc-type="slice"
       d="m 43.957723,67.482638 a 2.484556,2.4367762 0 0 1 2.509866,-2.406255 2.484556,2.4367762 0 0 1 2.458972,2.456281 2.484556,2.4367762 0 0 1 -2.499008,2.417101 2.484556,2.4367762 0 0 1 -2.470007,-2.445606 l 2.484539,0.0089 z" /><rect
       style="fill:#008080;stroke:#ffcc00;stroke-width:0.709999;stroke-opacity:0"
       id="rect19"
       width="7.4536676"
       height="0.86003858"
       x="34.019306"
       y="73.485527"
       rx="3.4373229"
       ry="0" /><rect
       style="fill:#ececec;stroke:#ffcc00;stroke-width:0.451414;stroke-opacity:0"
       id="rect20"
       width="11.329945"
       height="0.76238382"
       x="33.850918"
       y="74.143402"
       rx="0"
       ry="0" /><rect
       style="fill:#008080;stroke:#ffcc00;stroke-width:0.985362;stroke-opacity:0"
       id="rect21"
       width="12.159277"
       height="2.360698"
       x="100.93814"
       y="25.904163"
       rx="6.064115"
       ry="0"
       transform="matrix(0.80320703,0.59569999,-0.726255,0.68742539,0,0)" /><rect
       style="fill:#008080;stroke:#ffcc00;stroke-width:0.985362;stroke-opacity:0"
       id="rect22"
       width="12.159277"
       height="2.360698"
       x="6.0260262"
       y="-110.47791"
       rx="6.064115"
       ry="0"
       transform="matrix(-0.6096486,0.7926718,-0.67462582,-0.73815987,0,0)" /><rect
       style="fill:#008080;stroke:#ffcc00;stroke-width:0.922846;stroke-opacity:0"
       id="rect23"
       width="11.296524"
       height="2.2287936"
       x="38.779488"
       y="72.611961"
       rx="5.6338401"
       ry="0"
       transform="matrix(-0.76255268,0.64692613,0.67848324,0.73461588,0,0)" /><rect
       style="fill:#008080;stroke:#ffcc00;stroke-width:0.922846;stroke-opacity:0"
       id="rect24"
       width="11.296524"
       height="2.2287936"
       x="-61.127739"
       y="67.914742"
       rx="5.6338401"
       ry="0"
       transform="matrix(-0.8640879,-0.50334094,-0.46648382,0.88452973,0,0)" /><rect
       style="fill:#008080;stroke:#ffcc00;stroke-width:0.709999;stroke-opacity:0"
       id="rect25"
       width="4.7779922"
       height="5.7335906"
       x="23.889961"
       y="114.86293"
       rx="5.6338401" /></g></svg>
